<svg id="icons" enable-background="new 0 0 64 64" height="512" viewBox="0 0 64 64" width="512" xmlns="http://www.w3.org/2000/svg"><g fill="#e6e9ed"><path d="m10.505 44.432c0 1.101-.891 2-2 2-1.101 0-2-.899-2-2 0-1.11 2-3 2-3s2 1.889 2 3z"/><path d="m55.505 32.422v3h-6v-3c0-1.65 1.35-3 3-3 1.66 0 3 1.349 3 3z"/><path d="m38.505 44.432c0 1.101-.891 2-2 2-1.101 0-2-.899-2-2 0-1.11 2-3 2-3s2 1.889 2 3z"/></g><path d="m28.495 43.962c-1.801.93-3.841 1.46-6 1.46-2.16 0-4.2-.53-6-1.46-4.16-2.17-7-6.521-7-11.54v-4l3-3s4.569 2 10 2c5.43 0 10-2 10-2l3 3v4c0 5.019-2.841 9.37-7 11.54z" fill="#eac6bb"/><path d="m32.495 25.422-.003.001v6.999c0 5.02-2.841 9.37-7 11.54-1.377.711-2.896 1.183-4.499 1.368.493.057.994.092 1.502.092 2.159 0 4.199-.53 6-1.46 4.159-2.17 7-6.521 7-11.54v-4z" fill="#d3b1a9"/><path d="m28.495 43.962v5.46l-3 2-3-1-3 1-3-2v-5.46c1.8.93 3.84 1.46 6 1.46 2.159 0 4.199-.53 6-1.46z" fill="#87bcf4"/><path d="m55.505 42.432v9.8c-.88-.52-1.91-.81-3-.81-1.03 0-2 .26-2.851.72l-.149.084v-9.794-7.01h6z" fill="#da4453"/><path d="m55.505 52.231c1.79 1.03 3 2.971 3 5.19 0 3.32-2.681 6-6 6-3.311 0-6-2.68-6-6 0-2.28 1.27-4.26 3.149-5.28.851-.46 1.82-.72 2.851-.72 1.09.001 2.12.291 3 .81z" fill="#ed5565"/><path d="m39.495 56.422v6c0 .56-.45 1-1 1h-32c-.551 0-1-.44-1-1v-6c0-3.87 3.13-7 7-7h4l3 2 3-1 3 1 3-2h4c3.869 0 7 3.13 7 7z" fill="#5d9cec"/><path d="m32.495 49.422h-4l-.116.077h1.113c3.869 0 7 3.13 7 7v6c0 .421-.254.773-.614.923h2.617c.55 0 1-.44 1-1v-6c0-3.87-3.131-7-7-7z" fill="#4a89dc"/><path d="m12.495 25.422-3 3v-5c0-6.63 5.369-12 12-12h8v4c3.31 0 6 2.689 6 6v7l-3-3s-4.57 2-10 2c-5.431 0-10-2-10-2z" fill="#965353"/><path d="m29.495 18.422c1.654 0 3 1.346 3 3v4l3 3v-7c0-3.311-2.69-6-6-6v-4h-3v4c0 1.657 1.343 3 3 3z" fill="#844747"/><path d="m22.523 56.422c-.553 0-1.005-.447-1.005-1s.442-1 .994-1h.011c.552 0 1 .447 1 1s-.448 1-1 1z" fill="#87bcf4"/><path d="m22.523 61.423c-.553 0-1.005-.447-1.005-1s.442-1 .994-1h.011c.552 0 1 .447 1 1s-.448 1-1 1z" fill="#87bcf4"/><path d="m15.496 8.422c-.321 0-.637-.154-.83-.441-.309-.458-.188-1.079.271-1.388.16-.126.506-.563-.244-1.575-.714-.961-.984-1.883-.804-2.739.218-1.035 1.021-1.518 1.112-1.569.482-.273 1.092-.104 1.363.375.269.472.111 1.069-.35 1.349-.025.019-.145.111-.172.275-.045.261.121.668.455 1.118.692.933.968 1.849.818 2.722-.187 1.085-.974 1.644-1.063 1.703-.169.114-.364.17-.556.17z" fill="#e6e9ed"/><path d="m22.497 8.422c-.321 0-.637-.154-.83-.441-.309-.458-.188-1.079.271-1.388.16-.126.506-.563-.244-1.575-.714-.961-.984-1.883-.804-2.739.218-1.035 1.021-1.518 1.112-1.569.483-.273 1.092-.104 1.363.375.269.472.111 1.069-.35 1.349-.025.019-.145.111-.172.275-.045.261.121.668.455 1.118.692.933.968 1.849.818 2.722-.187 1.085-.974 1.644-1.063 1.703-.169.114-.364.17-.556.17z" fill="#e6e9ed"/><path d="m29.498 8.422c-.321 0-.637-.154-.83-.441-.309-.458-.188-1.079.271-1.388.16-.126.506-.563-.244-1.575-.714-.961-.984-1.883-.804-2.739.218-1.035 1.021-1.518 1.112-1.569.482-.273 1.092-.104 1.363.375.269.472.111 1.069-.35 1.349-.025.019-.145.111-.172.275-.044.26.122.667.456 1.117.692.933.968 1.849.818 2.722-.187 1.085-.974 1.644-1.063 1.703-.17.115-.365.171-.557.171z" fill="#e6e9ed"/><path d="m50.507 41.424h-1c-.001 0-.001 0-.002 0v1.008.992h.002 1c.553 0 1-.447 1-1s-.447-1-1-1z" fill="#d3374e"/><path d="m54.507 41.424c-.553 0-1 .447-1 1s.447 1 1 1h.998v-.992-1.008z" fill="#d3374e"/></svg>