<svg id="Layer_1" enable-background="new 0 0 512 512" height="512" viewBox="0 0 512 512" width="512" xmlns="http://www.w3.org/2000/svg"><g><path d="m434.103 435.225c41.467-43.886 66.899-103.083 66.899-168.227 0-135.311-109.691-245.002-245.002-245.002s-245.002 109.691-245.002 245.002c0 65.143 25.432 124.341 66.899 168.227z" fill="#73c3f9"/><path d="m436.994 14.546h-34.706c.001.056.009.111.009.168 0 7.212-5.867 13.079-13.079 13.079h-84.868c-7.212 0-13.079-5.867-13.079-13.079 0-.057.008-.111.009-.168h-216.274c-6.217 0-11.258 5.04-11.258 11.258v125.726l84.477-84.478c1.943-4.792 6.639-8.184 12.12-8.184 5.48 0 10.177 3.392 12.12 8.184l89.896 89.895h185.89v-131.144c0-6.216-5.04-11.257-11.257-11.257z" fill="#3c58a0"/><g><path d="m273.395 129.161v-88.295c0-11.538 6.773-21.57 16.54-26.319h-214.929c-6.217 0-11.258 5.04-11.258 11.258v125.725l84.477-84.478c1.943-4.792 6.639-8.184 12.12-8.184 5.48 0 10.177 3.392 12.12 8.184l89.896 89.895h31.209c-11.679-3.838-20.175-14.865-20.175-27.786z" fill="#1c2e7a"/></g><path d="m435.034 183.106h-178.087c-.001 0-.002 0-.004 0-3.444 0-6.816-1.397-9.252-3.833l-74.473-74.474c-1.067 6.146-6.426 10.839-12.873 10.839s-11.806-4.693-12.873-10.839l-70.507 70.508v258.919c44.716 47.851 108.376 77.774 179.035 77.774s134.319-29.923 179.034-77.775z" fill="#7255ce"/><path d="m149.761 467.5s0-139 0-152.5 10.585-18.568 10.585-18.568v-88.732c-9.227-9.227 0-17.192 0-17.192l11.773-32.606c-4.631-27.348 20.589-31.302 20.589-31.302l.342-1.97-19.831-19.831c-1.067 6.146-6.426 10.839-12.873 10.839s-11.806-4.693-12.873-10.839l-70.507 70.508v258.919c21.592 23.106 47.61 42.015 76.692 55.41-4.448-11.292-3.897-22.136-3.897-22.136z" fill="#5c45bf"/><path d="m374.681 286.742v-69.352c0-5.352-4.338-9.69-9.69-9.69h-217.982c-5.351 0-9.69 4.338-9.69 9.69v69.352c0 5.352 4.338 9.69 9.69 9.69h217.983c5.351 0 9.689-4.338 9.689-9.69z" fill="#e9efff"/><path d="m228.102 286.742v-69.352c0-5.352 4.338-9.69 9.69-9.69h-90.783c-5.351 0-9.69 4.338-9.69 9.69v69.352c0 5.352 4.338 9.69 9.69 9.69h90.783c-5.351 0-9.69-4.338-9.69-9.69z" fill="#d3dcfb"/><g><g><g><path d="m181.324 284.26c-8.837 0-17.138-3.568-22.776-9.79-2.808-3.099-2.572-7.888.527-10.696s7.888-2.572 10.696.527c2.731 3.015 7.05 4.814 11.553 4.814 4.379 0 6.892-2.646 7.211-4.434.38-2.131-2.62-4.047-5.555-5.13-7.682-2.834-14.507-5.871-14.794-5.999-.364-.163-.716-.354-1.05-.572-5.661-3.691-8.577-10.16-7.612-16.886 1.023-7.131 6.215-12.932 13.548-15.141 11.322-3.41 21.87 2.005 26.317 5.743 3.201 2.691 3.615 7.468.924 10.669-2.677 3.185-7.42 3.612-10.62.964-.212-.167-6.079-4.734-12.253-2.876-1.677.506-2.743 1.523-2.925 2.792-.076.529-.024 1.235.569 1.795 1.913.835 7.333 3.161 13.137 5.302 13.247 4.885 16.549 14.568 15.222 22-1.75 9.803-11.052 16.918-22.119 16.918z" fill="#fb7ac0"/></g></g><g fill="#fb7ac0"><path d="m289.996 224.916c-.026-.069-.054-.138-.082-.206-1.345-3.271-4.499-5.384-8.035-5.384-.002 0-.005 0-.008 0-3.539.003-6.693 2.122-8.033 5.398-.024.057-.046.115-.069.174l-18.495 48.562c-1.488 3.908.473 8.282 4.381 9.771 3.91 1.491 8.283-.472 9.772-4.382l2.748-7.216h19.264l2.715 7.196c1.145 3.032 4.026 4.9 7.086 4.9.888 0 1.792-.158 2.672-.49 3.913-1.476 5.888-5.845 4.411-9.758zm-12.053 31.572 3.908-10.261 3.872 10.261z"/><path d="m351.972 220.676c-3.505-2.28-8.195-1.29-10.478 2.215l-9.268 14.238-9.383-14.371c-2.286-3.502-6.98-4.486-10.48-2.2-3.502 2.286-4.487 6.978-2.2 10.48l14.496 22.2-.056 22.896c-.01 4.183 3.372 7.581 7.554 7.591h.019c4.173 0 7.562-3.378 7.572-7.554l.056-22.923 14.384-22.096c2.281-3.503 1.289-8.194-2.216-10.476z"/><path d="m244.796 219.859h-27.202c-4.182 0-7.572 3.39-7.572 7.572 0 4.183 3.39 7.572 7.572 7.572h5.974v41.684c0 4.182 3.39 7.572 7.572 7.572s7.572-3.39 7.572-7.572v-41.684h6.083c4.182 0 7.572-3.39 7.572-7.572.002-4.183-3.388-7.572-7.571-7.572z"/></g></g><path d="m207.094 362.928c-1.477 3.913.498 8.282 4.411 9.758.88.332 1.784.49 2.672.49 3.06 0 5.942-1.868 7.086-4.9l2.715-7.196h19.264l2.748 7.216c1.488 3.909 5.861 5.872 9.772 4.382 3.908-1.489 5.87-5.864 4.381-9.771l-18.495-48.562c-.022-.058-.045-.116-.068-.173-1.34-3.276-4.494-5.394-8.033-5.398-.003 0-.005 0-.008 0-3.537 0-6.69 2.112-8.035 5.384-.028.068-.056.137-.082.206zm22.6-16.992 3.872-10.261 3.908 10.261z" fill="#fb7ac0"/><path d="m270.622 309.307h27.202c4.182 0 7.572 3.39 7.572 7.572s-3.39 7.572-7.572 7.572h-5.974v41.684c0 4.182-3.39 7.572-7.572 7.572s-7.572-3.39-7.572-7.572v-41.684h-6.083c-4.182 0-7.572-3.39-7.572-7.572s3.389-7.572 7.571-7.572z" fill="#fb7ac0"/><ellipse cx="160.346" cy="172.079" fill="#816ae2" rx="18.429" ry="18.429" transform="matrix(.924 -.383 .383 .924 -53.646 74.46)"/><g><path d="m448.251 184.741h-191.308c-8.127 0-14.714-6.587-14.714-14.714 0-8.126 6.587-14.714 14.714-14.714h191.308c8.127 0 14.714 6.587 14.714 14.714 0 8.126-6.588 14.714-14.714 14.714z" fill="#e9efff"/></g><path d="m147.267 101.469v-30.612c0-2.859.932-5.498 2.495-7.652l-96.417 96.417c-5.746 5.746-5.746 15.062 0 20.809 5.747 5.747 15.064 5.746 20.809 0l74.071-74.072c-.613-1.512-.958-3.16-.958-4.89z" fill="#a8b7ef"/><path d="m267.348 159.623-96.418-96.418c1.562 2.154 2.495 4.793 2.495 7.652v30.612c0 1.73-.345 3.378-.958 4.89l74.071 74.072c5.745 5.746 15.062 5.747 20.809 0 5.746-5.746 5.746-15.062.001-20.808z" fill="#d3dcfb"/><path d="m307.117 87.486v22.025c0 3.92 3.178 7.098 7.098 7.098h65.138c3.92 0 7.098-3.178 7.098-7.098v-22.025z" fill="#e9efff"/><path d="m307.117 28.338h79.333v29.123h-79.333z" fill="#e9efff"/><path d="m355.998 28.338h-48.88v29.123h39.666v-19.909c0-5.089 4.125-9.214 9.214-9.214z" fill="#d3dcfb"/><path d="m307.117 109.512c0 3.92 3.178 7.097 7.098 7.097h65.138c3.92 0 7.098-3.178 7.098-7.097v-22.026h-79.333v22.026z" fill="#e9efff"/><path d="m346.784 109.512v-22.026h-39.666v22.025c0 3.92 3.178 7.097 7.098 7.097h39.667c-3.922.001-7.099-3.177-7.099-7.096z" fill="#d3dcfb"/><path d="m346.784 57.102h39.666v30.743h-39.666z" fill="#bec8f7"/><path d="m307.117 57.102h39.667v30.743h-39.667z" fill="#a8b7ef"/><path d="m403.931 14.714c0-8.127-6.587-14.714-14.714-14.714h-84.867c-8.126 0-14.714 6.587-14.714 14.714s6.587 14.714 14.714 14.714h84.867c8.127 0 14.714-6.587 14.714-14.714z" fill="#6289cc"/><path d="m338.136 14.714c0-8.126 6.587-14.714 14.714-14.714h-48.5c-8.127 0-14.714 6.588-14.714 14.714 0 8.127 6.587 14.714 14.714 14.714h48.5c-8.127 0-14.714-6.587-14.714-14.714z" fill="#4b6bb2"/><g><g><path d="m297.066 447.615c-3.736 0-7.04-2.373-8.232-5.918-.03-.09-.058-.179-.085-.27l-6.36-21.557-3.814 21.133c-.742 4.116-4.68 6.85-8.797 6.107-4.115-.743-6.85-4.682-6.107-8.797l8.657-47.966c.763-3.96 4.031-6.847 7.965-7.11 3.93-.278 7.557 2.162 8.813 5.9.03.089.058.177.085.268l7.769 26.332 7.485-26.258c.025-.088.052-.175.08-.262 1.217-3.749 4.814-6.221 8.751-5.99 3.935.222 7.233 3.075 8.02 6.938l9.188 48.069c.785 4.108-1.908 8.074-6.016 8.859-4.104.794-8.074-1.908-8.859-6.016l-4.064-21.262-6.138 21.531c-.025.088-.051.173-.079.259-1.158 3.572-4.459 5.987-8.214 6.007-.016.003-.032.003-.048.003z" fill="#e9efff"/></g></g><path d="m178.977 383.215c-4.182 0-7.572 3.39-7.572 7.572v16.21h-18.941v-16.21c0-4.183-3.39-7.572-7.572-7.572s-7.572 3.39-7.572 7.572v49.257c0 4.182 3.39 7.572 7.572 7.572s7.572-3.39 7.572-7.572v-17.902h18.941v17.902c0 4.182 3.39 7.572 7.572 7.572s7.572-3.39 7.572-7.572v-49.257c0-4.183-3.39-7.572-7.572-7.572z" fill="#e9efff"/><path d="m367.109 432.246h-12.993v-9.258h11.476c4.182 0 7.572-3.39 7.572-7.572s-3.39-7.572-7.572-7.572h-11.476v-9.258h12.993c4.182 0 7.572-3.39 7.572-7.572 0-4.183-3.39-7.572-7.572-7.572h-20.565c-4.182 0-7.572 3.39-7.572 7.572v48.806c0 4.182 3.39 7.572 7.572 7.572h20.565c4.182 0 7.572-3.39 7.572-7.572 0-4.185-3.39-7.574-7.572-7.574z" fill="#e9efff"/><g><path d="m260.463 395.378c-6.29-11.562-22.686-12.267-30.307-1.536-1.029 1.449-3.179 1.449-4.208 0-7.729-10.883-24.547-10.039-30.626 2.149-4.201 8.43-1.531 18.707 6.302 23.938 8.914 5.954 17.112 13.529 23.829 21.769 1.346 1.651 3.854 1.651 5.199 0 6.733-8.259 14.934-15.829 23.829-21.769 8.03-5.363 10.626-16.02 5.982-24.551z" fill="#fb7ac0"/></g><g><path d="m172.467 106.359 20.24 20.241c-4.032-12.641 7.605-24.774 20.453-21.164l-42.231-42.23c1.562 2.154 2.495 4.793 2.495 7.652-.311 30.751.725 31.349-.957 35.501z" fill="#a8b7ef"/></g><g><path d="m160.346 117.273c-8.127 0-14.714-6.587-14.714-14.714v-30.612c0-8.127 6.587-14.714 14.714-14.714s14.714 6.587 14.714 14.714v30.612c0 8.126-6.588 14.714-14.714 14.714z" fill="#e9efff"/></g><path d="m160.346 89.468c-8.127 0-14.714-6.587-14.714-14.714v27.805c0 8.127 6.587 14.714 14.714 14.714s14.714-6.587 14.714-14.714v-27.805c0 8.126-6.588 14.714-14.714 14.714z" fill="#d3dcfb"/><path d="m245.583 411.833c-4.629 0-8.417-3.788-8.417-8.417 0-4.629 3.788-8.417 8.417-8.417 4.629 0 8.417 3.788 8.417 8.417 0 4.63-3.788 8.417-8.417 8.417z" fill="#fcb1df"/></g></svg>